<svg xmlns="http://www.w3.org/2000/svg" viewBox="0 0 800 500" fill="none">
  <defs>
    <linearGradient id="purpleGrad5" x1="0%" y1="0%" x2="100%" y2="100%">
      <stop offset="0%" stop-color="#AA60C8"/>
      <stop offset="100%" stop-color="#D69ADE"/>
    </linearGradient>
    <linearGradient id="pinkGrad5" x1="0%" y1="0%" x2="100%" y2="100%">
      <stop offset="0%" stop-color="#D69ADE"/>
      <stop offset="100%" stop-color="#EABDE6"/>
    </linearGradient>
  </defs>
  
  <!-- Background -->
  <rect width="800" height="500" fill="#FDF5FA" rx="20"/>
  
  <!-- Map outline (simplified Europe + connected regions) -->
  <g transform="translate(400, 260)" opacity="0.1">
    <ellipse cx="0" cy="0" rx="300" ry="180" fill="#EABDE6"/>
  </g>
  
  <!-- Connection hub in center -->
  <g transform="translate(400, 260)">
    <!-- Central circle -->
    <circle cx="0" cy="0" r="50" fill="url(#purpleGrad5)"/>
    <text x="0" y="5" text-anchor="middle" fill="white" font-size="14" font-weight="bold">TSST</text>
    
    <!-- Radiating connections -->
    <g stroke="#D69ADE" stroke-width="3" opacity="0.5">
      <line x1="0" y1="-50" x2="0" y2="-120"/>
      <line x1="35" y1="-35" x2="85" y2="-85"/>
      <line x1="50" y1="0" x2="120" y2="0"/>
      <line x1="35" y1="35" x2="85" y2="85"/>
      <line x1="0" y1="50" x2="0" y2="120"/>
      <line x1="-35" y1="35" x2="-85" y2="85"/>
      <line x1="-50" y1="0" x2="-120" y2="0"/>
      <line x1="-35" y1="-35" x2="-85" y2="-85"/>
    </g>
  </g>
  
  <!-- Partner locations -->
  <!-- Poland (GASZO) - Top -->
  <g transform="translate(400, 100)">
    <circle cx="0" cy="0" r="35" fill="white" stroke="#AA60C8" stroke-width="3"/>
    <text x="0" y="-5" text-anchor="middle" fill="#2D1B3D" font-size="10" font-weight="600">POLAND</text>
    <text x="0" y="10" text-anchor="middle" fill="#6B4E7C" font-size="8">GASZO</text>
    <circle cx="0" cy="45" r="4" fill="#AA60C8"/>
  </g>
  
  <!-- Spain (Sonríe a Europa) - Right Top -->
  <g transform="translate(580, 160)">
    <circle cx="0" cy="0" r="35" fill="white" stroke="#D69ADE" stroke-width="3"/>
    <text x="0" y="-5" text-anchor="middle" fill="#2D1B3D" font-size="10" font-weight="600">SPAIN</text>
    <text x="0" y="10" text-anchor="middle" fill="#6B4E7C" font-size="8">Sonríe</text>
    <circle cx="-30" cy="30" r="4" fill="#D69ADE"/>
  </g>
  
  <!-- North Macedonia (Xanadu Art) - Left -->
  <g transform="translate(220, 260)">
    <circle cx="0" cy="0" r="35" fill="white" stroke="#D69ADE" stroke-width="3"/>
    <text x="0" y="-5" text-anchor="middle" fill="#2D1B3D" font-size="9" font-weight="600">N.MACEDONIA</text>
    <text x="0" y="10" text-anchor="middle" fill="#6B4E7C" font-size="8">Xanadu</text>
    <circle cx="40" cy="0" r="4" fill="#D69ADE"/>
  </g>
  
  <!-- Turkey (BYC) - Right -->
  <g transform="translate(580, 360)">
    <circle cx="0" cy="0" r="35" fill="white" stroke="#AA60C8" stroke-width="3"/>
    <text x="0" y="-5" text-anchor="middle" fill="#2D1B3D" font-size="10" font-weight="600">TURKEY</text>
    <text x="0" y="10" text-anchor="middle" fill="#6B4E7C" font-size="8">BYC</text>
    <circle cx="-30" cy="-30" r="4" fill="#AA60C8"/>
  </g>
  
  <!-- Curaçao (ASEAC) - Bottom -->
  <g transform="translate(400, 420)">
    <circle cx="0" cy="0" r="35" fill="white" stroke="#EABDE6" stroke-width="3"/>
    <text x="0" y="-5" text-anchor="middle" fill="#2D1B3D" font-size="10" font-weight="600">CURAÇAO</text>
    <text x="0" y="10" text-anchor="middle" fill="#6B4E7C" font-size="8">ASEAC</text>
    <circle cx="0" cy="-45" r="4" fill="#EABDE6"/>
  </g>
  
  <!-- Giralda Center (Spain) - Additional -->
  <g transform="translate(640, 260)">
    <circle cx="0" cy="0" r="30" fill="#FFDFEF" stroke="#EABDE6" stroke-width="2"/>
    <text x="0" y="-3" text-anchor="middle" fill="#2D1B3D" font-size="8" font-weight="600">Giralda</text>
    <text x="0" y="10" text-anchor="middle" fill="#6B4E7C" font-size="7">Center</text>
  </g>
  
  <!-- Exchange arrows between partners -->
  <g stroke="#D69ADE" stroke-width="2" fill="none" opacity="0.4">
    <!-- Curved connections -->
    <path d="M250 200 Q300 150 370 120" stroke-dasharray="5,3"/>
    <path d="M430 120 Q500 150 550 200" stroke-dasharray="5,3"/>
    <path d="M550 320 Q500 370 430 400" stroke-dasharray="5,3"/>
    <path d="M370 400 Q300 370 250 320" stroke-dasharray="5,3"/>
  </g>
  
  <!-- Icons representing collaboration -->
  <g transform="translate(100, 400)">
    <!-- Handshake icon -->
    <ellipse cx="-15" cy="0" rx="20" ry="15" fill="url(#pinkGrad5)" transform="rotate(-30)"/>
    <ellipse cx="15" cy="0" rx="20" ry="15" fill="url(#purpleGrad5)" transform="rotate(30)"/>
    <circle cx="0" cy="-5" r="8" fill="white"/>
  </g>
  
  <!-- Cultural diversity symbols -->
  <g transform="translate(700, 100)">
    <circle cx="0" cy="0" r="25" fill="#EABDE6" opacity="0.5"/>
    <text x="0" y="5" text-anchor="middle" fill="#6B4E7C" font-size="20">🌍</text>
  </g>
  
  <!-- Decorative elements -->
  <g fill="#FFDFEF" opacity="0.4">
    <circle cx="80" cy="80" r="20"/>
    <circle cx="720" cy="400" r="25"/>
  </g>
  
  <!-- Labels -->
  <text x="400" y="480" text-anchor="middle" fill="#6B4E7C" font-size="12">6 Partners • 5 Countries • 1 Mission</text>
</svg>
